<svg width="283" height="77" viewBox="0 0 283 77" fill="none" xmlns="http://www.w3.org/2000/svg">
<g clip-path="url(#clip0_1_6)">
<path d="M100.344 52.416C100.344 54.4213 99.8747 56.1493 98.936 57.6C98.04 59.008 96.5467 60.3093 94.456 61.504C93.048 62.3573 91.4053 62.9973 89.528 63.424C87.6507 63.8507 85.752 64.064 83.832 64.064C81.8693 64.064 79.4373 63.424 76.536 62.144C74.4453 61.12 72.7813 59.904 71.544 58.496C70.3493 57.088 69.752 55.552 69.752 53.888C69.752 52.736 70.008 51.904 70.52 51.392C71.032 50.8373 71.864 50.56 73.016 50.56C73.6133 50.56 74.232 50.816 74.872 51.328C75.512 51.7973 75.896 52.2667 76.024 52.736C76.6213 54.4853 77.6667 55.8293 79.16 56.768C80.6533 57.664 82.5093 58.112 84.728 58.112C87.288 58.112 89.4213 57.6427 91.128 56.704C92.8773 55.7653 93.752 54.5067 93.752 52.928C93.752 51.392 92.8133 50.0267 90.936 48.832C89.0587 47.6373 87.1387 46.8053 85.176 46.336C82.36 45.568 79.864 44.6507 77.688 43.584C75.4267 42.4747 73.7413 41.1093 72.632 39.488C71.5227 37.8667 70.968 36.16 70.968 34.368C70.968 32.704 71.544 31.0187 72.696 29.312C73.848 27.5627 75.2133 26.304 76.792 25.536C77.6453 25.1093 79.096 24.6613 81.144 24.192C83.2347 23.68 84.7493 23.424 85.688 23.424C86.9253 23.424 88.2907 23.5733 89.784 23.872C91.2773 24.1707 92.4933 24.5973 93.432 25.152C95.3093 26.2187 96.696 27.1787 97.592 28.032C98.488 28.8853 98.936 29.952 98.936 31.232C98.936 32 98.6373 32.6827 98.04 33.28C97.4853 33.8773 96.504 34.176 95.096 34.176C94.7547 34.176 94.4133 34.0267 94.072 33.728C93.7307 33.4293 93.304 32.9813 92.792 32.384C92.1093 31.488 91.448 30.8907 90.808 30.592C90.168 30.3787 89.2293 30.144 87.992 29.888C86.7973 29.632 85.7307 29.504 84.792 29.504C83.768 29.504 82.7013 29.7173 81.592 30.144C80.4827 30.5707 79.544 31.1893 78.776 32C78.0507 32.768 77.688 33.664 77.688 34.688C77.688 35.5413 78.072 36.288 78.84 36.928C79.6507 37.5253 80.6107 38.016 81.72 38.4C83 38.912 84.3867 39.36 85.88 39.744C87.8427 40.3413 89.4427 40.896 90.68 41.408C91.96 41.8773 93.1973 42.4747 94.392 43.2C96.4827 44.4373 97.9973 45.7173 98.936 47.04C99.8747 48.32 100.344 50.112 100.344 52.416ZM129.05 42.624C129.05 44.5013 128.09 45.44 126.17 45.44C125.53 45.44 124.996 45.2907 124.57 44.992C124.143 44.6933 123.674 44.2453 123.162 43.648C121.882 42.24 120.772 41.536 119.833 41.536C118.596 41.536 117.38 41.8987 116.186 42.624C115.034 43.3493 114.095 44.3733 113.37 45.696C112.644 47.0187 112.282 48.4907 112.282 50.112C112.282 51.904 112.623 53.3973 113.306 54.592C114.031 55.7867 115.14 56.8107 116.634 57.664C117.188 57.9627 117.828 58.1973 118.554 58.368C119.322 58.5387 119.983 58.624 120.538 58.624C121.775 58.624 123.332 58.1333 125.21 57.152C125.892 56.8107 126.468 56.5547 126.938 56.384C127.407 56.2133 127.898 56.128 128.41 56.128C128.879 56.128 129.412 56.3413 130.01 56.768C130.607 57.1947 130.906 57.728 130.906 58.368C130.906 59.648 130.308 60.736 129.114 61.632C127.919 62.4853 126.447 63.1467 124.698 63.616C122.991 64.0427 121.348 64.256 119.77 64.256C117.252 64.256 114.906 63.68 112.73 62.528C110.596 61.376 108.89 59.7973 107.61 57.792C106.33 55.744 105.69 53.44 105.69 50.88C105.69 48.1493 106.308 45.6533 107.546 43.392C108.783 41.1307 110.447 39.36 112.538 38.08C114.628 36.8 116.911 36.16 119.385 36.16C120.794 36.16 122.244 36.416 123.738 36.928C125.231 37.44 126.49 38.1867 127.514 39.168C128.538 40.1493 129.05 41.3013 129.05 42.624ZM162.442 64.192C159.242 64.192 157.087 62.9547 155.978 60.48C155.423 59.2427 155.06 57.6427 154.89 55.68C154.719 53.6747 154.634 51.328 154.634 48.64V46.656C154.634 43.584 153.61 42.048 151.562 42.048C150.367 42.048 149.172 42.6667 147.978 43.904C146.783 45.0987 145.78 46.6987 144.97 48.704C144.202 50.6667 143.818 52.7147 143.818 54.848C143.818 56.256 143.882 57.536 144.01 58.688C144.095 60.1387 144.138 61.248 144.138 62.016C144.138 63.4667 143.135 64.192 141.13 64.192C140.148 64.192 139.274 63.9787 138.506 63.552C137.78 63.1253 137.418 62.5707 137.418 61.888C137.588 59.712 137.674 57.024 137.674 53.824L137.61 45.376C137.61 44.0107 137.503 38.9547 137.29 30.208L137.098 24.32C137.098 23.3813 137.524 22.5707 138.378 21.888C139.231 21.1627 140.191 20.8 141.258 20.8C142.196 20.8 142.879 21.0133 143.306 21.44C143.732 21.8667 143.946 22.528 143.946 23.424C143.946 24.5333 143.924 25.8347 143.882 27.328C143.839 28.7787 143.796 29.888 143.754 30.656C143.626 32.832 143.562 35.008 143.562 37.184C143.562 39.3173 143.519 41.0027 143.434 42.24C144.714 40.3627 146.164 38.976 147.786 38.08C149.45 37.1413 151.391 36.672 153.61 36.672C155.231 36.672 156.724 37.3973 158.09 38.848C159.498 40.256 160.351 41.8773 160.65 43.712C160.735 44.6507 160.778 46.0373 160.778 47.872L160.714 52.544C160.714 53.2693 160.756 54.4 160.842 55.936C160.884 56.6613 161.119 57.4293 161.546 58.24C162.015 59.0507 162.548 59.648 163.146 60.032C163.7 60.3733 164.063 60.7147 164.234 61.056C164.404 61.3973 164.49 61.7813 164.49 62.208C164.49 62.6347 164.298 63.0827 163.914 63.552C163.53 63.9787 163.039 64.192 162.442 64.192ZM194.361 43.456C194.702 44.0533 194.98 44.928 195.193 46.08C195.406 47.1893 195.513 48.192 195.513 49.088C195.513 50.752 195.15 53.12 194.425 56.192C191.481 61.568 187.129 64.256 181.369 64.256C179.236 64.256 177.06 63.552 174.841 62.144C172.622 60.736 171.086 59.1147 170.233 57.28C169.081 53.6107 168.505 51.2853 168.505 50.304C168.505 48.5973 168.868 46.784 169.593 44.864C170.361 42.944 171.321 41.28 172.473 39.872C173.198 38.8907 174.5 38.0587 176.377 37.376C178.254 36.6507 179.961 36.288 181.497 36.288C184.484 36.288 187.022 36.864 189.113 38.016C191.204 39.1253 192.953 40.9387 194.361 43.456ZM188.793 53.76C189.006 53.2053 189.113 51.776 189.113 49.472C189.113 48.2347 188.878 47.0187 188.409 45.824C187.982 44.6293 187.342 43.6053 186.489 42.752C186.404 42.6667 186.169 42.5387 185.785 42.368C185.401 42.1547 184.868 41.9627 184.185 41.792C183.545 41.5787 182.798 41.472 181.945 41.472C179.556 41.472 177.806 42.432 176.697 44.352C175.588 46.272 175.033 48.448 175.033 50.88C175.033 51.3067 175.14 52.1173 175.353 53.312C175.609 54.5067 175.822 55.2533 175.993 55.552C176.121 55.8507 176.441 56.2773 176.953 56.832C177.508 57.344 178.169 57.8133 178.937 58.24C179.748 58.624 180.58 58.816 181.433 58.816C183.353 58.816 184.889 58.368 186.041 57.472C187.193 56.5333 188.11 55.296 188.793 53.76ZM226.983 43.456C227.324 44.0533 227.602 44.928 227.815 46.08C228.028 47.1893 228.135 48.192 228.135 49.088C228.135 50.24 228.007 51.52 227.751 52.928C227.495 54.336 227.26 55.424 227.047 56.192C224.103 61.568 219.751 64.256 213.991 64.256C211.858 64.256 209.682 63.552 207.463 62.144C205.244 60.736 203.708 59.1147 202.855 57.28C201.703 53.6533 201.127 51.328 201.127 50.304C201.127 48.5973 201.49 46.784 202.215 44.864C202.983 42.944 203.943 41.28 205.095 39.872C205.863 38.8907 207.186 38.0587 209.063 37.376C210.94 36.6507 212.647 36.288 214.183 36.288C217.17 36.288 219.687 36.864 221.735 38.016C223.826 39.1253 225.575 40.9387 226.983 43.456ZM221.415 53.76C221.628 53.3333 221.735 51.904 221.735 49.472C221.735 48.2347 221.5 47.0187 221.031 45.824C220.604 44.6293 219.964 43.6053 219.111 42.752C219.026 42.6667 218.791 42.5387 218.407 42.368C218.023 42.1547 217.49 41.9627 216.807 41.792C216.167 41.5787 215.42 41.472 214.567 41.472C212.178 41.472 210.428 42.432 209.319 44.352C208.21 46.272 207.655 48.448 207.655 50.88C207.655 51.264 207.783 52.0533 208.039 53.248C208.295 54.4427 208.487 55.2107 208.615 55.552C208.956 56.1493 209.639 56.8533 210.663 57.664C211.73 58.432 212.882 58.816 214.119 58.816C216.039 58.816 217.554 58.368 218.663 57.472C219.815 56.5333 220.732 55.296 221.415 53.76ZM241.435 54.08C241.435 55.7013 241.67 56.96 242.139 57.856C242.651 58.7093 243.291 59.136 244.059 59.136C244.486 59.136 244.891 59.1147 245.275 59.072C245.659 58.9867 246.043 58.944 246.427 58.944C246.854 58.944 247.216 59.1573 247.515 59.584C247.856 60.0107 248.027 60.48 248.027 60.992C248.027 62.016 247.536 62.8267 246.555 63.424C245.616 63.9787 244.336 64.256 242.715 64.256C241.563 64.256 240.39 63.9147 239.195 63.232C238.043 62.5067 237.083 61.3973 236.315 59.904C235.547 58.368 235.163 56.4693 235.163 54.208C235.163 49.344 235.248 45.2267 235.419 41.856C235.632 37.8453 235.739 32.7893 235.739 26.688C235.739 24.768 235.846 23.424 236.059 22.656C236.315 22.0587 236.72 21.6107 237.275 21.312C237.872 20.9707 238.491 20.8 239.131 20.8C239.771 20.8 240.326 20.9067 240.795 21.12C241.307 21.3333 241.648 21.6747 241.819 22.144C241.99 22.656 242.096 23.168 242.139 23.68C242.224 24.1493 242.267 24.832 242.267 25.728C242.267 27.4773 242.203 29.1627 242.075 30.784C241.99 32.7467 241.947 34.176 241.947 35.072C241.606 42.5813 241.435 48.9173 241.435 54.08ZM281.448 60.928C281.448 61.8667 280.936 62.656 279.912 63.296C278.888 63.936 277.949 64.256 277.096 64.256C275.517 64.256 274.237 64.064 273.256 63.68C272.317 63.2533 271.421 62.4853 270.568 61.376C269.501 62.3573 268.008 63.104 266.088 63.616C264.168 64.0853 262.397 64.32 260.776 64.32C258.131 64.32 255.933 63.616 254.184 62.208C252.477 60.7573 251.624 58.6453 251.624 55.872C251.624 54.6773 251.987 53.4827 252.712 52.288C253.437 51.0507 254.333 50.0693 255.4 49.344C256.552 48.576 257.853 48.064 259.304 47.808C260.755 47.5093 262.44 47.36 264.36 47.36C265.256 47.36 266.323 47.5307 267.56 47.872C268.797 48.2133 269.779 48.576 270.504 48.96V47.936C270.504 45.632 269.928 44.0533 268.776 43.2C267.667 42.304 265.875 41.856 263.4 41.856C262.632 41.856 261.928 41.984 261.288 42.24C260.691 42.4533 259.987 42.7733 259.176 43.2C258.408 43.6267 257.683 43.84 257 43.84C256.403 43.84 255.827 43.6053 255.272 43.136C254.717 42.624 254.44 42.0907 254.44 41.536C254.44 39.744 255.549 38.4427 257.768 37.632C260.029 36.7787 262.333 36.352 264.68 36.352C265.875 36.352 267.24 36.608 268.776 37.12C270.312 37.5893 271.613 38.2507 272.68 39.104C273.96 40.1707 274.941 41.4507 275.624 42.944C276.349 44.4373 276.712 46.0587 276.712 47.808C276.712 48.3627 276.669 49.1947 276.584 50.304C276.499 51.4987 276.456 52.5227 276.456 53.376L276.392 55.104C276.307 56.0427 276.264 56.7893 276.264 57.344C276.264 57.856 276.435 58.304 276.776 58.688C277.16 59.0293 277.608 59.2 278.12 59.2L279.912 59.136C280.381 59.136 280.744 59.328 281 59.712C281.299 60.0533 281.448 60.4587 281.448 60.928ZM260.776 59.264C262.611 59.264 264.147 59.072 265.384 58.688C266.621 58.304 268.115 57.6 269.864 56.576C270.035 55.8507 270.141 54.8907 270.184 53.696C267.837 52.5867 265.896 52.032 264.36 52.032C262.909 52.032 261.736 52.096 260.84 52.224C259.944 52.3093 259.133 52.672 258.408 53.312C257.683 53.952 257.32 54.976 257.32 56.384C257.32 57.1947 257.704 57.8773 258.472 58.432C259.283 58.9867 260.051 59.264 260.776 59.264Z" fill="#3088B1"/>
<path d="M36.637 37.3347V37.1664L31.1119 26.0922C31.1119 26.0922 29.817 26.3615 28.4141 28.6336C27.4429 30.1988 2.28879 68.8744 2.1485 69.1773C1.39312 70.8603 2.32116 70.3218 3.84271 69.4634C3.92904 69.4634 16.1986 63.3036 16.1986 63.3036C16.2525 63.2026 16.1878 63.2868 16.2633 63.2026C16.2201 62.3443 16.177 58.7931 16.1554 58.5407C16.0906 57.6655 16.3928 57.3794 16.9108 57.0428L26.9034 51.3542C26.9681 51.2196 36.4535 37.604 36.637 37.3347ZM53.9136 57.5477C55.3488 60.2574 56.1473 59.7861 57.2372 59.1129C57.5826 58.9109 69.6902 51.1018 69.9492 50.883C70.8125 50.1593 69.7657 48.0724 69.1722 46.9447C68.9456 46.524 47.0396 5.60996 46.813 5.15555C45.7663 3.10227 45.2699 2.98446 42.6692 3.00129C41.5685 3.00129 31.1443 3.08544 30.0975 3.10227C28.0256 3.1191 26.5473 3.05178 28.0256 5.94656C28.8566 7.54543 53.2985 56.3864 53.9136 57.5477ZM70.3916 57.817C70.1434 57.7665 67.737 57.026 66.291 56.6052C66.291 56.6052 53.8812 65.0876 53.6114 65.2896C51.8848 66.5182 50.7086 64.751 49.6511 62.8324L43.4893 50.3781C42.9066 50.2266 36.9715 48.7624 36.4427 48.8129C36.1082 48.8465 35.4068 48.9475 34.8888 49.3009C34.36 49.6544 19.2201 58.1872 18.6805 58.507C18.1302 58.8436 17.4503 59.1129 17.4827 59.7861C17.5043 60.2069 17.6985 60.2237 17.9791 60.3752C18.2705 60.5098 50.4496 71.7523 51.2158 72.0048C52.8992 72.5602 55.3704 73.7719 56.9998 72.2909C57.2264 72.0889 70.3593 59.4327 70.5751 59.1971C71.1578 58.5239 71.0391 58.0526 70.3916 57.817Z" fill="#3088B1"/>
</g>
<defs>
<clipPath id="clip0_1_6">
<rect width="283" height="77" fill="white"/>
</clipPath>
</defs>
</svg>
