<svg width="3992" height="2593" viewBox="0 0 3992 2593" fill="none" xmlns="http://www.w3.org/2000/svg">
<g clip-path="url(#clip0_2_2)">
<rect width="3992" height="2593" fill="#3088B1"/>
<g clip-path="url(#clip1_2_2)">
<path d="M2065.75 1390.27V1389.84L2047.51 1361.47C2047.51 1361.47 2043.23 1362.16 2038.6 1367.98C2035.4 1371.99 1952.35 1471.09 1951.89 1471.87C1949.4 1476.18 1952.46 1474.8 1957.48 1472.6C1957.77 1472.6 1998.27 1456.82 1998.27 1456.82C1998.45 1456.56 1998.24 1456.77 1998.49 1456.56C1998.35 1454.36 1998.2 1445.26 1998.13 1444.61C1997.92 1442.37 1998.92 1441.64 2000.63 1440.77L2033.61 1426.2C2033.83 1425.85 2065.14 1390.96 2065.75 1390.27ZM2122.78 1442.07C2127.52 1449.01 2130.16 1447.8 2133.76 1446.08C2134.9 1445.56 2174.87 1425.55 2175.72 1424.99C2178.57 1423.14 2175.12 1417.79 2173.16 1414.9C2172.41 1413.82 2100.09 1308.98 2099.34 1307.82C2095.89 1302.56 2094.25 1302.26 2085.66 1302.3C2082.03 1302.3 2047.62 1302.52 2044.16 1302.56C2037.32 1302.6 2032.44 1302.43 2037.32 1309.85C2040.06 1313.94 2120.75 1439.09 2122.78 1442.07ZM2177.18 1442.76C2176.36 1442.63 2168.42 1440.73 2163.65 1439.65C2163.65 1439.65 2122.68 1461.39 2121.79 1461.91C2116.09 1465.05 2112.2 1460.53 2108.71 1455.61L2088.37 1423.7C2086.45 1423.31 2066.85 1419.56 2065.11 1419.69C2064 1419.77 2061.69 1420.03 2059.98 1420.94C2058.23 1421.84 2008.25 1443.71 2006.47 1444.53C2004.65 1445.39 2002.41 1446.08 2002.51 1447.8C2002.59 1448.88 2003.23 1448.92 2004.15 1449.31C2005.11 1449.66 2111.35 1478.47 2113.88 1479.11C2119.44 1480.54 2127.59 1483.64 2132.97 1479.85C2133.72 1479.33 2177.08 1446.9 2177.79 1446.29C2179.71 1444.57 2179.32 1443.36 2177.18 1442.76Z" fill="black" fill-opacity="0.18"/>
</g>
<g clip-path="url(#clip2_2_2)">
<path d="M3669.75 1122.27V1121.84L3651.51 1093.47C3651.51 1093.47 3647.23 1094.16 3642.6 1099.98C3639.4 1103.99 3556.35 1203.09 3555.89 1203.87C3553.4 1208.18 3556.46 1206.8 3561.48 1204.6C3561.77 1204.6 3602.27 1188.82 3602.27 1188.82C3602.45 1188.56 3602.24 1188.77 3602.49 1188.56C3602.35 1186.36 3602.2 1177.26 3602.13 1176.61C3601.92 1174.37 3602.92 1173.64 3604.63 1172.77L3637.61 1158.2C3637.83 1157.85 3669.14 1122.96 3669.75 1122.27ZM3726.78 1174.07C3731.52 1181.01 3734.16 1179.8 3737.76 1178.08C3738.9 1177.56 3778.87 1157.55 3779.72 1156.99C3782.57 1155.14 3779.12 1149.79 3777.16 1146.9C3776.41 1145.82 3704.09 1040.98 3703.34 1039.82C3699.89 1034.56 3698.25 1034.26 3689.66 1034.3C3686.03 1034.3 3651.61 1034.52 3648.16 1034.56C3641.32 1034.6 3636.44 1034.43 3641.32 1041.85C3644.06 1045.94 3724.75 1171.09 3726.78 1174.07ZM3781.18 1174.76C3780.36 1174.63 3772.42 1172.73 3767.65 1171.65C3767.65 1171.65 3726.68 1193.39 3725.79 1193.91C3720.09 1197.05 3716.2 1192.53 3712.71 1187.61L3692.37 1155.7C3690.45 1155.31 3670.85 1151.56 3669.11 1151.69C3668 1151.77 3665.69 1152.03 3663.98 1152.94C3662.23 1153.84 3612.25 1175.71 3610.47 1176.53C3608.65 1177.39 3606.41 1178.08 3606.51 1179.8C3606.58 1180.88 3607.23 1180.92 3608.15 1181.31C3609.11 1181.66 3715.35 1210.47 3717.88 1211.11C3723.43 1212.54 3731.59 1215.64 3736.97 1211.85C3737.72 1211.33 3781.08 1178.9 3781.79 1178.29C3783.71 1176.57 3783.32 1175.36 3781.18 1174.76Z" fill="black" fill-opacity="0.18"/>
</g>
<path d="M3446 152.25C3368.67 152.25 3306 205.346 3306 270.875C3306 299.162 3317.7 325.055 3337.17 345.415C3330.34 374.159 3307.48 399.766 3307.2 400.051C3306 401.362 3305.67 403.302 3306.38 405.013C3307.09 406.723 3308.62 407.75 3310.38 407.75C3346.63 407.75 3373.81 389.614 3387.27 378.436C3405.15 385.451 3425 389.5 3446 389.5C3523.33 389.5 3586 336.404 3586 270.875C3586 205.346 3523.33 152.25 3446 152.25ZM3376.11 307.375H3369.44C3367.03 307.375 3365.06 305.322 3365.06 302.812V293.688C3365.06 291.178 3367.03 289.125 3369.44 289.125H3376.16C3379.45 289.125 3381.85 287.129 3381.85 285.361C3381.85 284.62 3381.41 283.821 3380.7 283.194L3368.73 272.472C3364.08 268.366 3361.45 262.491 3361.45 256.446C3361.45 244.298 3371.84 234.432 3384.64 234.432H3391.31C3393.72 234.432 3395.69 236.485 3395.69 238.995V248.12C3395.69 250.629 3393.72 252.682 3391.31 252.682H3384.59C3381.3 252.682 3378.9 254.678 3378.9 256.446C3378.9 257.187 3379.34 257.986 3380.05 258.613L3392.02 269.335C3396.67 273.441 3399.3 279.316 3399.3 285.361C3399.35 297.509 3388.91 307.375 3376.11 307.375ZM3481 302.812C3481 305.322 3479.03 307.375 3476.62 307.375H3467.88C3465.47 307.375 3463.5 305.322 3463.5 302.812V263.917L3449.94 295.741C3448.35 299.105 3443.7 299.105 3442.12 295.741L3428.5 263.917V302.812C3428.5 305.322 3426.53 307.375 3424.12 307.375H3415.38C3412.97 307.375 3411 305.322 3411 302.812V243.5C3411 238.481 3414.94 234.375 3419.75 234.375H3428.5C3431.84 234.375 3434.84 236.314 3436.32 239.394L3446 259.583L3455.68 239.394C3457.16 236.314 3460.22 234.375 3463.5 234.375H3472.25C3477.06 234.375 3481 238.481 3481 243.5V302.812ZM3507.41 307.375H3500.69C3498.28 307.375 3496.31 305.322 3496.31 302.812V293.688C3496.31 291.178 3498.28 289.125 3500.69 289.125H3507.41C3510.7 289.125 3513.1 287.129 3513.1 285.361C3513.1 284.62 3512.66 283.821 3511.95 283.194L3499.98 272.472C3495.33 268.366 3492.7 262.491 3492.7 256.446C3492.7 244.298 3503.09 234.432 3515.89 234.432H3522.56C3524.97 234.432 3526.94 236.485 3526.94 238.995V248.12C3526.94 250.629 3524.97 252.682 3522.56 252.682H3515.84C3512.55 252.682 3510.15 254.678 3510.15 256.446C3510.15 257.187 3510.59 257.986 3511.3 258.613L3523.27 269.335C3527.92 273.441 3530.55 279.316 3530.55 285.361C3530.6 297.509 3520.21 307.375 3507.41 307.375Z" fill="black" fill-opacity="0.31"/>
<path d="M220 850.25C142.672 850.25 80 903.346 80 968.875C80 997.162 91.7031 1023.05 111.172 1043.41C104.336 1072.16 81.4766 1097.77 81.2031 1098.05C80 1099.36 79.6719 1101.3 80.3828 1103.01C81.0937 1104.72 82.625 1105.75 84.375 1105.75C120.633 1105.75 147.813 1087.61 161.266 1076.44C179.148 1083.45 199 1087.5 220 1087.5C297.328 1087.5 360 1034.4 360 968.875C360 903.346 297.328 850.25 220 850.25ZM150.109 1005.38H143.438C141.031 1005.38 139.062 1003.32 139.062 1000.81V991.688C139.062 989.178 141.031 987.125 143.438 987.125H150.164C153.445 987.125 155.852 985.129 155.852 983.361C155.852 982.62 155.414 981.821 154.703 981.194L142.727 970.472C138.078 966.366 135.453 960.491 135.453 954.446C135.453 942.298 145.844 932.432 158.641 932.432H165.312C167.719 932.432 169.688 934.485 169.688 936.995V946.12C169.688 948.629 167.719 950.682 165.312 950.682H158.586C155.305 950.682 152.898 952.678 152.898 954.446C152.898 955.187 153.336 955.986 154.047 956.613L166.023 967.335C170.672 971.441 173.297 977.316 173.297 983.361C173.352 995.509 162.906 1005.38 150.109 1005.38ZM255 1000.81C255 1003.32 253.031 1005.38 250.625 1005.38H241.875C239.469 1005.38 237.5 1003.32 237.5 1000.81V961.917L223.938 993.741C222.352 997.105 217.703 997.105 216.117 993.741L202.5 961.917V1000.81C202.5 1003.32 200.531 1005.38 198.125 1005.38H189.375C186.969 1005.38 185 1003.32 185 1000.81V941.5C185 936.481 188.937 932.375 193.75 932.375H202.5C205.836 932.375 208.844 934.314 210.32 937.394L220 957.583L229.68 937.394C231.156 934.314 234.219 932.375 237.5 932.375H246.25C251.063 932.375 255 936.481 255 941.5V1000.81ZM281.414 1005.38H274.688C272.281 1005.38 270.312 1003.32 270.312 1000.81V991.688C270.312 989.178 272.281 987.125 274.688 987.125H281.414C284.695 987.125 287.102 985.129 287.102 983.361C287.102 982.62 286.664 981.821 285.953 981.194L273.977 970.472C269.328 966.366 266.703 960.491 266.703 954.446C266.703 942.298 277.094 932.432 289.891 932.432H296.562C298.969 932.432 300.938 934.485 300.938 936.995V946.12C300.938 948.629 298.969 950.682 296.562 950.682H289.836C286.555 950.682 284.148 952.678 284.148 954.446C284.148 955.187 284.586 955.986 285.297 956.613L297.273 967.335C301.922 971.441 304.547 977.316 304.547 983.361C304.602 995.509 294.211 1005.38 281.414 1005.38Z" fill="black" fill-opacity="0.31"/>
<path d="M588.8 1996.25H603.2C605.6 1996.25 608 1992.63 608 1989V1912.88C608 1909.25 605.6 1905.62 603.2 1905.62H588.8C586.4 1905.62 584 1909.25 584 1912.88V1989C584 1992.63 586.4 1996.25 588.8 1996.25ZM624.8 1996.25H639.2C641.6 1996.25 644 1992.63 644 1989V1858.5C644 1854.88 641.6 1851.25 639.2 1851.25H624.8C622.4 1851.25 620 1854.88 620 1858.5V1989C620 1992.63 622.4 1996.25 624.8 1996.25ZM516.8 1996.25H531.2C533.6 1996.25 536 1992.63 536 1989V1949.13C536 1945.5 533.6 1941.88 531.2 1941.88H516.8C514.4 1941.88 512 1945.5 512 1949.13V1989C512 1992.63 514.4 1996.25 516.8 1996.25ZM552.8 1996.25H567.2C569.6 1996.25 572 1992.63 572 1989V1876.63C572 1873 569.6 1869.38 567.2 1869.38H552.8C550.4 1869.38 548 1873 548 1876.63V1989C548 1992.63 550.4 1996.25 552.8 1996.25ZM650 2032.5H488V1860.31C488 1855.31 485.315 1851.25 482 1851.25H470C466.685 1851.25 464 1855.31 464 1860.31V2050.62C464 2060.63 469.374 2068.75 476 2068.75H650C653.315 2068.75 656 2064.69 656 2059.69V2041.56C656 2036.56 653.315 2032.5 650 2032.5Z" fill="black" fill-opacity="0.18"/>
<path d="M2388.8 723.25H2403.2C2405.6 723.25 2408 719.625 2408 716V639.875C2408 636.25 2405.6 632.625 2403.2 632.625H2388.8C2386.4 632.625 2384 636.25 2384 639.875V716C2384 719.625 2386.4 723.25 2388.8 723.25ZM2424.8 723.25H2439.2C2441.6 723.25 2444 719.625 2444 716V585.5C2444 581.875 2441.6 578.25 2439.2 578.25H2424.8C2422.4 578.25 2420 581.875 2420 585.5V716C2420 719.625 2422.4 723.25 2424.8 723.25ZM2316.8 723.25H2331.2C2333.6 723.25 2336 719.625 2336 716V676.125C2336 672.5 2333.6 668.875 2331.2 668.875H2316.8C2314.4 668.875 2312 672.5 2312 676.125V716C2312 719.625 2314.4 723.25 2316.8 723.25ZM2352.8 723.25H2367.2C2369.6 723.25 2372 719.625 2372 716V603.625C2372 600 2369.6 596.375 2367.2 596.375H2352.8C2350.4 596.375 2348 600 2348 603.625V716C2348 719.625 2350.4 723.25 2352.8 723.25ZM2450 759.5H2288V587.312C2288 582.305 2285.32 578.25 2282 578.25H2270C2266.68 578.25 2264 582.305 2264 587.312V777.625C2264 787.633 2269.37 795.75 2276 795.75H2450C2453.32 795.75 2456 791.695 2456 786.688V768.562C2456 763.555 2453.32 759.5 2450 759.5Z" fill="black" fill-opacity="0.18"/>
<path d="M813.625 300.571V320.929C813.625 338.868 768.554 353.5 713 353.5C657.446 353.5 612.375 338.868 612.375 320.929V300.571C612.375 282.632 657.446 268 713 268C768.554 268 813.625 282.632 813.625 300.571ZM813.625 346.375V392.179C813.625 410.118 768.554 424.75 713 424.75C657.446 424.75 612.375 410.118 612.375 392.179V346.375C633.994 361.134 673.562 368.005 713 368.005C752.438 368.005 792.006 361.134 813.625 346.375ZM813.625 417.625V463.429C813.625 481.368 768.554 496 713 496C657.446 496 612.375 481.368 612.375 463.429V417.625C633.994 432.384 673.562 439.255 713 439.255C752.438 439.255 792.006 432.384 813.625 417.625Z" fill="black" fill-opacity="0.13"/>
<path d="M2933.62 2334.57V2354.93C2933.62 2372.87 2888.55 2387.5 2833 2387.5C2777.45 2387.5 2732.38 2372.87 2732.38 2354.93V2334.57C2732.38 2316.63 2777.45 2302 2833 2302C2888.55 2302 2933.62 2316.63 2933.62 2334.57ZM2933.62 2380.38V2426.18C2933.62 2444.12 2888.55 2458.75 2833 2458.75C2777.45 2458.75 2732.38 2444.12 2732.38 2426.18V2380.38C2753.99 2395.13 2793.56 2402 2833 2402C2872.44 2402 2912.01 2395.13 2933.62 2380.38ZM2933.62 2451.62V2497.43C2933.62 2515.37 2888.55 2530 2833 2530C2777.45 2530 2732.38 2515.37 2732.38 2497.43V2451.62C2753.99 2466.38 2793.56 2473.25 2833 2473.25C2872.44 2473.25 2912.01 2466.38 2933.62 2451.62Z" fill="black" fill-opacity="0.13"/>
<g clip-path="url(#clip3_2_2)">
<path d="M3662.38 1931.94C3662.38 1909.88 3644.75 1892 3623 1892C3601.25 1892 3583.62 1909.88 3583.62 1931.94C3583.62 1953.99 3601.25 1971.87 3623 1971.87C3644.75 1971.87 3662.38 1953.99 3662.38 1931.94ZM3613.81 1992.3C3589.47 1977.19 3550.06 1973.04 3530.22 1971.9C3523.56 1971.51 3518 1976.66 3518 1983.17V2075.85C3518 2081.82 3522.75 2086.79 3528.87 2087.11C3546.77 2088.06 3583 2091.55 3608.04 2104.34C3611.88 2106.31 3616.44 2103.63 3616.44 2099.4V1997.07C3616.44 1995.13 3615.49 1993.35 3613.81 1992.3ZM3715.78 1971.9C3695.95 1973.04 3656.53 1977.19 3632.2 1992.3C3630.51 1993.35 3629.57 1995.2 3629.57 1997.14V2099.39C3629.57 2103.63 3634.14 2106.31 3637.99 2104.34C3663.03 2091.56 3699.24 2088.07 3717.14 2087.12C3723.25 2086.8 3728 2081.82 3728 2075.86V1983.17C3728 1976.66 3722.44 1971.51 3715.78 1971.9Z" fill="black" fill-opacity="0.15"/>
</g>
<g clip-path="url(#clip4_2_2)">
<path d="M1058.38 1080.94C1058.38 1058.88 1040.75 1041 1019 1041C997.254 1041 979.625 1058.88 979.625 1080.94C979.625 1102.99 997.254 1120.87 1019 1120.87C1040.75 1120.87 1058.38 1102.99 1058.38 1080.94ZM1009.81 1141.3C985.474 1126.19 946.058 1122.04 926.223 1120.9C919.558 1120.51 914 1125.66 914 1132.17V1224.85C914 1230.82 918.754 1235.79 924.865 1236.11C942.772 1237.06 979.002 1240.55 1004.04 1253.34C1007.88 1255.31 1012.44 1252.63 1012.44 1248.4V1146.07C1012.44 1144.13 1011.49 1142.35 1009.81 1141.3ZM1111.78 1120.9C1091.95 1122.04 1052.53 1126.19 1028.2 1141.3C1026.51 1142.35 1025.57 1144.2 1025.57 1146.14V1248.39C1025.57 1252.63 1030.14 1255.31 1033.99 1253.34C1059.03 1240.56 1095.24 1237.07 1113.14 1236.12C1119.25 1235.8 1124 1230.82 1124 1224.86V1132.17C1124 1125.66 1118.44 1120.51 1111.78 1120.9Z" fill="black" fill-opacity="0.15"/>
</g>
<ellipse cx="1939" cy="-0.5" rx="141" ry="134.5" fill="#B2F7EF" fill-opacity="0.39"/>
<ellipse cx="1996" cy="2563.5" rx="141" ry="134.5" fill="#B2F7EF" fill-opacity="0.39"/>
<ellipse cx="19.5" cy="2501" rx="121.5" ry="119" fill="#B2F7EF" fill-opacity="0.28"/>
<ellipse cx="19.5" cy="2501" rx="121.5" ry="119" fill="#B2F7EF" fill-opacity="0.28"/>
<ellipse cx="19.5" cy="2501" rx="121.5" ry="119" fill="#B2F7EF" fill-opacity="0.28"/>
<ellipse cx="182.5" cy="2525" rx="121.5" ry="119" fill="#B2F7EF" fill-opacity="0.28"/>
<ellipse cx="182.5" cy="2525" rx="121.5" ry="119" fill="#B2F7EF" fill-opacity="0.28"/>
<ellipse cx="182.5" cy="2525" rx="121.5" ry="119" fill="#B2F7EF" fill-opacity="0.28"/>
<ellipse cx="79" cy="74.5" rx="141" ry="134.5" fill="#B2F7EF" fill-opacity="0.39"/>
<ellipse cx="3945" cy="111.5" rx="141" ry="134.5" fill="#B2F7EF" fill-opacity="0.39"/>
<ellipse cx="3840" cy="38.5" rx="141" ry="134.5" fill="#B2F7EF" fill-opacity="0.39"/>
<ellipse cx="3788.85" cy="2577.42" rx="122.551" ry="128.144" transform="rotate(-25.5626 3788.85 2577.42)" fill="#B2F7EF" fill-opacity="0.28"/>
<ellipse cx="3788.85" cy="2577.42" rx="122.551" ry="128.144" transform="rotate(-25.5626 3788.85 2577.42)" fill="#B2F7EF" fill-opacity="0.28"/>
<ellipse cx="3788.85" cy="2577.42" rx="122.551" ry="128.144" transform="rotate(-25.5626 3788.85 2577.42)" fill="#B2F7EF" fill-opacity="0.28"/>
<ellipse cx="3948.32" cy="2529.79" rx="122.551" ry="128.144" transform="rotate(-25.5626 3948.32 2529.79)" fill="#B2F7EF" fill-opacity="0.28"/>
<ellipse cx="3948.32" cy="2529.79" rx="122.551" ry="128.144" transform="rotate(-25.5626 3948.32 2529.79)" fill="#B2F7EF" fill-opacity="0.28"/>
<ellipse cx="3948.32" cy="2529.79" rx="122.551" ry="128.144" transform="rotate(-25.5626 3948.32 2529.79)" fill="#B2F7EF" fill-opacity="0.28"/>
<path d="M1079 2251.25C1001.67 2251.25 939 2304.35 939 2369.88C939 2398.16 950.703 2424.05 970.172 2444.41C963.336 2473.16 940.477 2498.77 940.203 2499.05C939 2500.36 938.672 2502.3 939.383 2504.01C940.094 2505.72 941.625 2506.75 943.375 2506.75C979.633 2506.75 1006.81 2488.61 1020.27 2477.44C1038.15 2484.45 1058 2488.5 1079 2488.5C1156.33 2488.5 1219 2435.4 1219 2369.88C1219 2304.35 1156.33 2251.25 1079 2251.25ZM1009.11 2406.38H1002.44C1000.03 2406.38 998.062 2404.32 998.062 2401.81V2392.69C998.062 2390.18 1000.03 2388.12 1002.44 2388.12H1009.16C1012.45 2388.12 1014.85 2386.13 1014.85 2384.36C1014.85 2383.62 1014.41 2382.82 1013.7 2382.19L1001.73 2371.47C997.078 2367.37 994.453 2361.49 994.453 2355.45C994.453 2343.3 1004.84 2333.43 1017.64 2333.43H1024.31C1026.72 2333.43 1028.69 2335.49 1028.69 2337.99V2347.12C1028.69 2349.63 1026.72 2351.68 1024.31 2351.68H1017.59C1014.3 2351.68 1011.9 2353.68 1011.9 2355.45C1011.9 2356.19 1012.34 2356.99 1013.05 2357.61L1025.02 2368.34C1029.67 2372.44 1032.3 2378.32 1032.3 2384.36C1032.35 2396.51 1021.91 2406.38 1009.11 2406.38ZM1114 2401.81C1114 2404.32 1112.03 2406.38 1109.62 2406.38H1100.88C1098.47 2406.38 1096.5 2404.32 1096.5 2401.81V2362.92L1082.94 2394.74C1081.35 2398.11 1076.7 2398.11 1075.12 2394.74L1061.5 2362.92V2401.81C1061.5 2404.32 1059.53 2406.38 1057.12 2406.38H1048.38C1045.97 2406.38 1044 2404.32 1044 2401.81V2342.5C1044 2337.48 1047.94 2333.38 1052.75 2333.38H1061.5C1064.84 2333.38 1067.84 2335.31 1069.32 2338.39L1079 2358.58L1088.68 2338.39C1090.16 2335.31 1093.22 2333.38 1096.5 2333.38H1105.25C1110.06 2333.38 1114 2337.48 1114 2342.5V2401.81ZM1140.41 2406.38H1133.69C1131.28 2406.38 1129.31 2404.32 1129.31 2401.81V2392.69C1129.31 2390.18 1131.28 2388.12 1133.69 2388.12H1140.41C1143.7 2388.12 1146.1 2386.13 1146.1 2384.36C1146.1 2383.62 1145.66 2382.82 1144.95 2382.19L1132.98 2371.47C1128.33 2367.37 1125.7 2361.49 1125.7 2355.45C1125.7 2343.3 1136.09 2333.43 1148.89 2333.43H1155.56C1157.97 2333.43 1159.94 2335.49 1159.94 2337.99V2347.12C1159.94 2349.63 1157.97 2351.68 1155.56 2351.68H1148.84C1145.55 2351.68 1143.15 2353.68 1143.15 2355.45C1143.15 2356.19 1143.59 2356.99 1144.3 2357.61L1156.27 2368.34C1160.92 2372.44 1163.55 2378.32 1163.55 2384.36C1163.6 2396.51 1153.21 2406.38 1140.41 2406.38Z" fill="black" fill-opacity="0.31"/>
</g>
<defs>
<clipPath id="clip0_2_2">
<rect width="3992" height="2593" fill="white"/>
</clipPath>
<clipPath id="clip1_2_2">
<rect width="228" height="276" fill="white" transform="translate(1951 1254)"/>
</clipPath>
<clipPath id="clip2_2_2">
<rect width="228" height="276" fill="white" transform="translate(3555 986)"/>
</clipPath>
<clipPath id="clip3_2_2">
<rect width="210" height="213" fill="white" transform="translate(3518 1892)"/>
</clipPath>
<clipPath id="clip4_2_2">
<rect width="210" height="213" fill="white" transform="translate(914 1041)"/>
</clipPath>
</defs>
</svg>
