<svg width="70" height="70" viewBox="0 0 70 70" fill="none" xmlns="http://www.w3.org/2000/svg">
<path d="M34.7566 34.3347V34.1664L29.2315 23.0922C29.2315 23.0922 27.9366 23.3615 26.5337 25.6336C25.5625 27.1988 0.408384 65.8744 0.2681 66.1773C-0.48728 67.8603 0.440758 67.3218 1.96231 66.4634C2.04864 66.4634 14.3182 60.3036 14.3182 60.3036C14.3721 60.2026 14.3074 60.2868 14.3829 60.2026C14.3397 59.3443 14.2966 55.7931 14.275 55.5407C14.2102 54.6655 14.5124 54.3794 15.0304 54.0428L25.023 48.3542C25.0877 48.2196 34.5731 34.604 34.7566 34.3347ZM52.0332 54.5477C53.4684 57.2574 54.2669 56.7861 55.3568 56.1129C55.7022 55.9109 67.8098 48.1018 68.0688 47.883C68.9321 47.1593 67.8853 45.0724 67.2918 43.9447C67.0652 43.524 45.1592 2.60996 44.9326 2.15555C43.8859 0.102275 43.3895 -0.0155362 40.7888 0.00129395C39.6881 0.00129395 29.2639 0.0854443 28.2171 0.102274C26.1452 0.119105 24.6669 0.0517842 26.1452 2.94656C26.9762 4.54543 51.4181 53.3864 52.0332 54.5477ZM68.5112 54.817C68.263 54.7665 65.8566 54.026 64.4106 53.6052C64.4106 53.6052 52.0008 62.0876 51.731 62.2896C50.0044 63.5182 48.8282 61.751 47.7707 59.8324L41.6089 47.3781C41.0262 47.2266 35.0911 45.7624 34.5623 45.8129C34.2278 45.8465 33.5264 45.9475 33.0084 46.3009C32.4796 46.6544 17.3397 55.1872 16.8001 55.507C16.2498 55.8436 15.5699 56.1129 15.6023 56.7861C15.6239 57.2069 15.8181 57.2237 16.0987 57.3752C16.3901 57.5098 48.5692 68.7523 49.3354 69.0048C51.0188 69.5602 53.49 70.7719 55.1194 69.2909C55.346 69.0889 68.4789 56.4327 68.6947 56.1971C69.2774 55.5239 69.1587 55.0526 68.5112 54.817Z" fill="#F9F9F9"/>
</svg>
