<?xml version="1.0" encoding="UTF-8"?>
<svg xmlns="http://www.w3.org/2000/svg" version="1.1" width="500" height="500" viewBox="0 0 500 500"><rect x="0" y="0" width="500" height="500" fill="#ffffff"/><g transform="scale(17.241)"><g transform="translate(0,0)"><path fill-rule="evenodd" d="M9 0L9 1L8 1L8 2L9 2L9 3L8 3L8 4L10 4L10 7L11 7L11 4L12 4L12 5L13 5L13 6L12 6L12 9L13 9L13 8L14 8L14 9L15 9L15 10L17 10L17 11L16 11L16 12L15 12L15 11L14 11L14 12L15 12L15 13L12 13L12 11L13 11L13 10L11 10L11 11L10 11L10 9L11 9L11 8L6 8L6 9L5 9L5 8L0 8L0 11L1 11L1 12L0 12L0 13L3 13L3 15L4 15L4 16L5 16L5 15L7 15L7 16L6 16L6 17L5 17L5 18L4 18L4 17L3 17L3 18L4 18L4 19L3 19L3 20L2 20L2 21L5 21L5 20L4 20L4 19L5 19L5 18L6 18L6 19L7 19L7 20L6 20L6 21L7 21L7 20L8 20L8 23L9 23L9 22L10 22L10 23L11 23L11 21L12 21L12 22L13 22L13 23L12 23L12 25L13 25L13 24L14 24L14 25L15 25L15 26L17 26L17 27L16 27L16 28L15 28L15 27L14 27L14 28L15 28L15 29L17 29L17 27L18 27L18 29L19 29L19 28L20 28L20 27L18 27L18 26L19 26L19 25L20 25L20 26L21 26L21 27L22 27L22 26L23 26L23 27L24 27L24 25L25 25L25 23L26 23L26 25L29 25L29 23L27 23L27 22L28 22L28 20L29 20L29 19L28 19L28 18L26 18L26 17L24 17L24 16L25 16L25 15L27 15L27 16L29 16L29 14L28 14L28 13L27 13L27 14L26 14L26 13L24 13L24 12L26 12L26 11L27 11L27 10L28 10L28 8L27 8L27 10L26 10L26 8L25 8L25 11L21 11L21 12L22 12L22 14L23 14L23 13L24 13L24 14L25 14L25 15L21 15L21 13L20 13L20 15L18 15L18 14L17 14L17 11L18 11L18 12L20 12L20 10L22 10L22 8L21 8L21 6L20 6L20 5L21 5L21 2L20 2L20 0L19 0L19 2L18 2L18 1L17 1L17 0L15 0L15 1L17 1L17 2L16 2L16 3L17 3L17 4L18 4L18 5L17 5L17 6L16 6L16 4L12 4L12 2L13 2L13 1L11 1L11 2L10 2L10 0ZM14 2L14 3L15 3L15 2ZM17 2L17 3L18 3L18 2ZM10 3L10 4L11 4L11 3ZM19 3L19 5L18 5L18 6L17 6L17 7L16 7L16 6L15 6L15 7L14 7L14 6L13 6L13 7L14 7L14 8L15 8L15 7L16 7L16 8L18 8L18 6L19 6L19 7L20 7L20 6L19 6L19 5L20 5L20 3ZM8 5L8 7L9 7L9 5ZM19 8L19 9L17 9L17 10L18 10L18 11L19 11L19 9L21 9L21 8ZM23 8L23 9L24 9L24 8ZM1 9L1 10L2 10L2 12L5 12L5 13L6 13L6 14L7 14L7 15L8 15L8 16L7 16L7 17L6 17L6 18L7 18L7 19L8 19L8 20L9 20L9 17L10 17L10 16L9 16L9 14L10 14L10 15L11 15L11 18L13 18L13 19L12 19L12 21L15 21L15 23L14 23L14 24L16 24L16 25L17 25L17 26L18 26L18 25L17 25L17 24L19 24L19 23L20 23L20 22L18 22L18 21L20 21L20 20L21 20L21 19L23 19L23 18L24 18L24 19L25 19L25 20L27 20L27 19L25 19L25 18L24 18L24 17L23 17L23 18L22 18L22 16L21 16L21 15L20 15L20 16L18 16L18 17L14 17L14 16L16 16L16 15L17 15L17 14L16 14L16 13L15 13L15 15L14 15L14 16L13 16L13 17L12 17L12 15L13 15L13 14L12 14L12 13L11 13L11 12L10 12L10 13L9 13L9 14L8 14L8 13L6 13L6 12L8 12L8 11L9 11L9 9L6 9L6 10L8 10L8 11L6 11L6 12L5 12L5 9L4 9L4 11L3 11L3 9ZM28 11L28 12L29 12L29 11ZM10 13L10 14L11 14L11 13ZM1 14L1 15L0 15L0 21L1 21L1 17L2 17L2 14ZM8 16L8 17L9 17L9 16ZM18 17L18 18L17 18L17 19L16 19L16 18L15 18L15 19L14 19L14 20L15 20L15 21L16 21L16 22L17 22L17 23L18 23L18 22L17 22L17 21L16 21L16 20L17 20L17 19L18 19L18 18L20 18L20 19L19 19L19 20L20 20L20 19L21 19L21 18L20 18L20 17ZM15 19L15 20L16 20L16 19ZM21 21L21 24L24 24L24 21ZM25 21L25 22L27 22L27 21ZM22 22L22 23L23 23L23 22ZM8 24L8 29L9 29L9 28L10 28L10 29L12 29L12 27L13 27L13 26L11 26L11 25L10 25L10 24ZM21 25L21 26L22 26L22 25ZM9 26L9 27L10 27L10 28L11 28L11 26ZM26 26L26 27L25 27L25 28L24 28L24 29L27 29L27 27L28 27L28 28L29 28L29 27L28 27L28 26ZM21 28L21 29L23 29L23 28ZM0 0L7 0L7 7L0 7ZM1 1L1 6L6 6L6 1ZM2 2L5 2L5 5L2 5ZM22 0L29 0L29 7L22 7ZM23 1L23 6L28 6L28 1ZM24 2L27 2L27 5L24 5ZM0 22L7 22L7 29L0 29ZM1 23L1 28L6 28L6 23ZM2 24L5 24L5 27L2 27Z" fill="#000000"/></g></g></svg>
